HIERARCHY
ROOT mixamorig:Hips
{
	OFFSET 0.000000 201.639420 0.000000
	CHANNELS 6 Xposition Yposition Zposition Xrotation Yrotation Zrotation
	JOINT mixamorig:Spine
	{
		OFFSET 0.006200 19.524994 -2.481800
		CHANNELS 3 Xrotation Yrotation Zrotation
		JOINT mixamorig:Spine1
		{
			OFFSET -0.000900 22.835007 -2.825400
			CHANNELS 3 Xrotation Yrotation Zrotation
			JOINT mixamorig:Spine2
			{
				OFFSET -0.020600 26.552490 -3.193300
				CHANNELS 3 Xrotation Yrotation Zrotation
				JOINT mixamorig:Neck
				{
					OFFSET -0.060000 30.701813 1.352200
					CHANNELS 3 Xrotation Yrotation Zrotation
					JOINT mixamorig:Head
					{
						OFFSET -0.087200 22.547607 3.670900
						CHANNELS 3 Xrotation Yrotation Zrotation
						JOINT mixamorig:HeadTop_End
						{
							OFFSET -0.830600 40.355194 7.893500
							CHANNELS 3 Xrotation Yrotation Zrotation
							End Site
							{
								OFFSET 0.000000 30.592346 0.000000
							}
						}
						JOINT mixamorig:RightEye
						{
							OFFSET -6.302100 18.118591 16.197100
							CHANNELS 3 Xrotation Yrotation Zrotation
							End Site
							{
								OFFSET 0.000000 30.592346 0.000000
							}
						}
						JOINT mixamorig:LeftEye
						{
							OFFSET 6.741500 18.382690 16.401899
							CHANNELS 3 Xrotation Yrotation Zrotation
							End Site
							{
								OFFSET 0.000000 30.592346 0.000000
							}
						}
					}
				}
				JOINT mixamorig:LeftShoulder
				{
					OFFSET 11.924900 18.230499 1.425400
					CHANNELS 3 Xrotation Yrotation Zrotation
					JOINT mixamorig:LeftArm
					{
						OFFSET 25.435989 -0.697632 -5.229300
						CHANNELS 3 Xrotation Yrotation Zrotation
						JOINT mixamorig:LeftForeArm
						{
							OFFSET 54.684776 0.000000 0.000000
							CHANNELS 3 Xrotation Yrotation Zrotation
							JOINT mixamorig:LeftHand
							{
								OFFSET 55.098175 0.000000 0.000000
								CHANNELS 3 Xrotation Yrotation Zrotation
								JOINT mixamorig:LeftHandMiddle1
								{
									OFFSET 23.369751 0.000000 0.000000
									CHANNELS 3 Xrotation Yrotation Zrotation
									JOINT mixamorig:LeftHandMiddle2
									{
										OFFSET 6.378677 0.000000 0.000000
										CHANNELS 3 Xrotation Yrotation Zrotation
										JOINT mixamorig:LeftHandMiddle3
										{
											OFFSET 6.148331 0.000000 0.000000
											CHANNELS 3 Xrotation Yrotation Zrotation
											JOINT mixamorig:LeftHandMiddle4
											{
												OFFSET 6.582504 0.000000 0.000000
												CHANNELS 3 Xrotation Yrotation Zrotation
												End Site
												{
													OFFSET -1.168900 6.395691 1.028606
												}
											}
										}
									}
								}
								JOINT mixamorig:LeftHandThumb1
								{
									OFFSET 7.235672 -3.848206 5.434273
									CHANNELS 3 Xrotation Yrotation Zrotation
									JOINT mixamorig:LeftHandThumb2
									{
										OFFSET 6.568451 -3.792297 3.792300
										CHANNELS 3 Xrotation Yrotation Zrotation
										JOINT mixamorig:LeftHandThumb3
										{
											OFFSET 6.063080 -3.500519 3.500518
											CHANNELS 3 Xrotation Yrotation Zrotation
											JOINT mixamorig:LeftHandThumb4
											{
												OFFSET 4.793182 -2.767334 2.767349
												CHANNELS 3 Xrotation Yrotation Zrotation
												End Site
												{
													OFFSET 0.101639 6.054260 1.275483
												}
											}
										}
									}
								}
								JOINT mixamorig:LeftHandIndex1
								{
									OFFSET 23.101074 -0.309540 4.992809
									CHANNELS 3 Xrotation Yrotation Zrotation
									JOINT mixamorig:LeftHandIndex2
									{
										OFFSET 6.226883 0.000000 0.000000
										CHANNELS 3 Xrotation Yrotation Zrotation
										JOINT mixamorig:LeftHandIndex3
										{
											OFFSET 6.094330 0.000000 0.000000
											CHANNELS 3 Xrotation Yrotation Zrotation
											JOINT mixamorig:LeftHandIndex4
											{
												OFFSET 5.482605 0.000000 0.000000
												CHANNELS 3 Xrotation Yrotation Zrotation
												End Site
												{
													OFFSET -1.427902 5.233032 0.797164
												}
											}
										}
									}
								}
								JOINT mixamorig:LeftHandRing1
								{
									OFFSET 22.299240 0.021149 -3.964172
									CHANNELS 3 Xrotation Yrotation Zrotation
									JOINT mixamorig:LeftHandRing2
									{
										OFFSET 6.321869 0.000000 0.000000
										CHANNELS 3 Xrotation Yrotation Zrotation
										JOINT mixamorig:LeftHandRing3
										{
											OFFSET 5.899796 0.000000 0.000000
											CHANNELS 3 Xrotation Yrotation Zrotation
											JOINT mixamorig:LeftHandRing4
											{
												OFFSET 6.517899 0.000000 0.000000
												CHANNELS 3 Xrotation Yrotation Zrotation
												End Site
												{
													OFFSET -1.637299 6.232208 0.980890
												}
											}
										}
									}
								}
								JOINT mixamorig:LeftHandPinky1
								{
									OFFSET 20.463791 -0.302338 -8.562233
									CHANNELS 3 Xrotation Yrotation Zrotation
									JOINT mixamorig:LeftHandPinky2
									{
										OFFSET 6.908646 0.000000 0.000000
										CHANNELS 3 Xrotation Yrotation Zrotation
										JOINT mixamorig:LeftHandPinky3
										{
											OFFSET 4.622849 0.000000 0.000000
											CHANNELS 3 Xrotation Yrotation Zrotation
											JOINT mixamorig:LeftHandPinky4
											{
												OFFSET 5.216080 0.000000 0.000000
												CHANNELS 3 Xrotation Yrotation Zrotation
												End Site
												{
													OFFSET -0.606308 5.116241 0.814926
												}
											}
										}
									}
								}
							}
						}
					}
				}
				JOINT mixamorig:RightShoulder
				{
					OFFSET -12.001300 18.284088 1.348900
					CHANNELS 3 Xrotation Yrotation Zrotation
					JOINT mixamorig:RightArm
					{
						OFFSET -25.308500 -0.751312 -5.164599
						CHANNELS 3 Xrotation Yrotation Zrotation
						JOINT mixamorig:RightForeArm
						{
							OFFSET -54.684429 0.000000 0.000000
							CHANNELS 3 Xrotation Yrotation Zrotation
							JOINT mixamorig:RightHand
							{
								OFFSET -55.150291 0.000000 0.000000
								CHANNELS 3 Xrotation Yrotation Zrotation
								JOINT mixamorig:RightHandMiddle1
								{
									OFFSET -23.317566 0.000000 0.000000
									CHANNELS 3 Xrotation Yrotation Zrotation
									JOINT mixamorig:RightHandMiddle2
									{
										OFFSET -6.378403 0.000000 0.000000
										CHANNELS 3 Xrotation Yrotation Zrotation
										JOINT mixamorig:RightHandMiddle3
										{
											OFFSET -6.148193 0.000000 0.000000
											CHANNELS 3 Xrotation Yrotation Zrotation
											JOINT mixamorig:RightHandMiddle4
											{
												OFFSET -6.583389 0.000000 0.000000
												CHANNELS 3 Xrotation Yrotation Zrotation
												End Site
												{
													OFFSET 1.171692 6.395905 1.029786
												}
											}
										}
									}
								}
								JOINT mixamorig:RightHandThumb1
								{
									OFFSET -7.190521 -3.860474 5.435846
									CHANNELS 3 Xrotation Yrotation Zrotation
									JOINT mixamorig:RightHandThumb2
									{
										OFFSET -6.567429 -3.791718 3.791708
										CHANNELS 3 Xrotation Yrotation Zrotation
										JOINT mixamorig:RightHandThumb3
										{
											OFFSET -6.062469 -3.500153 3.500166
											CHANNELS 3 Xrotation Yrotation Zrotation
											JOINT mixamorig:RightHandThumb4
											{
												OFFSET -4.792618 -2.767029 2.767022
												CHANNELS 3 Xrotation Yrotation Zrotation
												End Site
												{
													OFFSET -0.100327 6.053253 1.276754
												}
											}
										}
									}
								}
								JOINT mixamorig:RightHandIndex1
								{
									OFFSET -23.048981 -0.310791 4.992554
									CHANNELS 3 Xrotation Yrotation Zrotation
									JOINT mixamorig:RightHandIndex2
									{
										OFFSET -6.227539 0.000000 0.000000
										CHANNELS 3 Xrotation Yrotation Zrotation
										JOINT mixamorig:RightHandIndex3
										{
											OFFSET -6.095047 0.000000 0.000000
											CHANNELS 3 Xrotation Yrotation Zrotation
											JOINT mixamorig:RightHandIndex4
											{
												OFFSET -5.484772 0.000000 0.000000
												CHANNELS 3 Xrotation Yrotation Zrotation
												End Site
												{
													OFFSET 1.420593 5.237305 0.797056
												}
											}
										}
									}
								}
								JOINT mixamorig:RightHandRing1
								{
									OFFSET -22.246323 0.020569 -3.963762
									CHANNELS 3 Xrotation Yrotation Zrotation
									JOINT mixamorig:RightHandRing2
									{
										OFFSET -6.322128 0.000000 0.000000
										CHANNELS 3 Xrotation Yrotation Zrotation
										JOINT mixamorig:RightHandRing3
										{
											OFFSET -5.900024 0.000000 0.000000
											CHANNELS 3 Xrotation Yrotation Zrotation
											JOINT mixamorig:RightHandRing4
											{
												OFFSET -6.518356 0.000000 0.000000
												CHANNELS 3 Xrotation Yrotation Zrotation
												End Site
												{
													OFFSET 1.636398 6.232697 0.982186
												}
											}
										}
									}
								}
								JOINT mixamorig:RightHandPinky1
								{
									OFFSET -20.411011 -0.303314 -8.561701
									CHANNELS 3 Xrotation Yrotation Zrotation
									JOINT mixamorig:RightHandPinky2
									{
										OFFSET -6.907349 0.000000 0.000000
										CHANNELS 3 Xrotation Yrotation Zrotation
										JOINT mixamorig:RightHandPinky3
										{
											OFFSET -4.623840 0.000000 0.000000
											CHANNELS 3 Xrotation Yrotation Zrotation
											JOINT mixamorig:RightHandPinky4
											{
												OFFSET -5.218353 0.000000 0.000000
												CHANNELS 3 Xrotation Yrotation Zrotation
												End Site
												{
													OFFSET 0.602097 5.118835 0.816273
												}
											}
										}
									}
								}
							}
						}
					}
				}
			}
		}
	}
	JOINT mixamorig:LeftUpLeg
	{
		OFFSET 18.168400 -13.561905 -0.039000
		CHANNELS 3 Xrotation Yrotation Zrotation
		JOINT mixamorig:LeftLeg
		{
			OFFSET 0.577358 -80.825211 -3.695000
			CHANNELS 3 Xrotation Yrotation Zrotation
			JOINT mixamorig:LeftFoot
			{
				OFFSET -0.577356 -83.370262 -6.520700
				CHANNELS 3 Xrotation Yrotation Zrotation
				JOINT mixamorig:LeftToeBase
				{
					OFFSET 0.750401 -20.798306 25.135401
					CHANNELS 3 Xrotation Yrotation Zrotation
					JOINT mixamorig:LeftToe_End
					{
						OFFSET -0.000500 0.001200 19.917799
						CHANNELS 3 Xrotation Yrotation Zrotation
						End Site
						{
							OFFSET 0.000000 19.917805 0.000000
						}
					}
				}
			}
		}
	}
	JOINT mixamorig:RightUpLeg
	{
		OFFSET -18.162500 -13.585098 -0.041000
		CHANNELS 3 Xrotation Yrotation Zrotation
		JOINT mixamorig:RightLeg
		{
			OFFSET -0.595024 -80.945297 -3.631900
			CHANNELS 3 Xrotation Yrotation Zrotation
			JOINT mixamorig:RightFoot
			{
				OFFSET 0.595024 -83.218193 -6.561200
				CHANNELS 3 Xrotation Yrotation Zrotation
				JOINT mixamorig:RightToeBase
				{
					OFFSET -0.753601 -20.807106 25.115000
					CHANNELS 3 Xrotation Yrotation Zrotation
					JOINT mixamorig:RightToe_End
					{
						OFFSET 0.000299 0.001700 19.918200
						CHANNELS 3 Xrotation Yrotation Zrotation
						End Site
						{
							OFFSET 0.000000 19.918203 0.000000
						}
					}
				}
			}
		}
	}
}
MOTION
Frames: 5
Frame Time: 0.033333
3.646637 29.333817 646.470459 261.893085 -28.838937 59.954062 6.009907 -0.452828 -1.216799 12.006409 -1.330029 -2.409016 12.006410 -1.330031 -2.409026 -7.205552 -2.408593 6.307044 8.116019 5.666989 -3.847702 -0.000000 0.000000 -0.000001 -0.000000 0.000000 -0.000001 -0.000000 0.000000 -0.000001 -0.235901 -17.372726 16.945964 -13.445493 20.779001 -60.273947 -194.428862 -67.322593 -179.844605 14.128286 -21.935521 40.171283 1.580223 6.376947 -31.501034 -1.166559 -2.812953 -34.531066 0.000004 -0.000001 -0.000005 0.000002 0.000001 -0.000001 8.137138 3.076083 -5.789680 1.123722 3.186015 1.245519 -0.000001 -0.000011 -0.000021 -0.000002 -0.000001 -0.000003 0.471407 -10.438164 -19.688379 -0.572664 -0.592919 -29.030442 0.000003 -0.000002 0.000001 -0.000000 -0.000001 0.000001 1.163453 12.709801 -45.972924 -1.019395 -3.248549 -44.719820 -0.000004 -0.000007 -0.000008 0.000001 0.000001 -0.000003 2.472563 16.706936 -49.370803 -0.860394 -6.004917 -52.095735 0.000000 0.000006 0.000007 -0.000001 0.000000 0.000001 4.086640 28.708928 -6.852620 -48.526414 27.055766 50.302291 83.492786 70.991723 -79.690276 39.269230 2.711138 -11.581937 2.292033 -5.477279 12.561922 -0.385314 1.321197 24.021907 0.000005 -0.000001 0.000004 0.000000 0.000000 -0.000003 -10.146153 -4.750163 17.743460 2.088364 -6.015833 -2.013912 0.000007 0.000004 -0.000025 0.000004 -0.000001 0.000002 4.246300 3.315579 6.667982 -0.059095 -0.614456 22.355686 -0.000001 0.000002 -0.000004 0.000001 -0.000003 0.000003 -1.126505 -13.182800 10.991737 -0.670494 3.310118 30.860799 -0.000001 -0.000003 0.000008 -0.000001 -0.000000 0.000001 -1.654412 -22.201894 15.343865 -0.631984 6.406447 19.014579 0.000013 0.000004 -0.000002 0.000000 0.000000 0.000002 -135.181000 -9.785026 9.713793 83.678102 -1.310930 -5.269059 -10.369043 -0.134411 0.791683 1.015226 -0.410759 0.498218 0.000000 -0.000000 -0.000000 -119.694871 -35.266876 -9.824258 110.062891 2.099695 3.732781 28.990434 6.045847 28.723763 5.443715 -3.772751 5.225651 0.000001 0.000002 0.000000 
1.249741 25.300903 659.794434 276.698367 -27.685601 58.365961 4.805021 -0.198914 -1.353237 9.581682 -1.981874 -3.060963 9.581681 -1.981876 -3.060944 16.397360 9.542275 6.003744 -6.495746 5.313104 -0.347381 0.000000 -0.000001 -0.000000 0.000000 -0.000001 -0.000000 0.000000 -0.000001 -0.000000 -2.597064 -1.089154 20.977645 -16.399265 2.791637 -74.534070 -208.590180 -92.803577 -198.194386 14.425272 -24.720917 36.816530 1.946171 9.143775 -17.856263 -0.621626 -1.883815 -24.597494 0.000003 -0.000006 -0.000005 0.000001 -0.000001 0.000000 6.184277 -0.177985 -6.420082 0.381160 1.574365 1.019731 0.000005 -0.000007 -0.000020 -0.000002 0.000001 -0.000001 -0.646147 -7.498431 -6.970302 -0.080993 0.496619 -19.132328 0.000003 -0.000004 0.000006 -0.000001 0.000002 0.000002 2.420495 14.515685 -34.338691 -0.641361 -2.780839 -34.748618 -0.000004 -0.000008 -0.000010 0.000001 0.000003 -0.000001 3.951239 18.175009 -37.948756 -0.695309 -5.854100 -42.111692 -0.000004 0.000014 0.000007 -0.000001 0.000003 0.000001 5.311074 33.399140 -7.929479 -40.592391 18.954699 51.224523 42.004031 64.748575 -37.708054 36.258360 1.629274 -23.515445 2.274326 -5.412266 13.415375 -0.417344 1.391466 24.877924 0.000004 0.000000 0.000001 0.000000 0.000000 -0.000000 -9.599601 -5.381495 17.743447 2.339929 -6.583250 -2.076339 -0.000003 0.000002 -0.000020 0.000001 0.000001 0.000001 4.236235 3.381513 7.523447 -0.088145 -0.544578 23.109716 -0.000003 -0.000001 0.000002 0.000001 0.000001 -0.000004 -1.142646 -13.103053 11.841713 -0.709021 3.373965 31.718582 0.000000 -0.000001 0.000002 0.000001 0.000001 -0.000001 -1.621699 -22.072713 16.205227 -0.653531 6.468488 19.871505 0.000004 0.000000 -0.000003 -0.000001 -0.000000 0.000001 -131.621830 -5.534484 9.357007 89.306417 0.979396 -4.887763 -12.395432 0.129970 -0.913363 1.079307 -1.914686 1.728673 -0.000001 -0.000002 0.000001 -113.549668 -38.282182 -15.769189 123.060625 8.905569 -1.128918 39.185570 9.325492 30.399109 6.877704 -6.916541 9.076813 -0.000000 0.000002 0.000002 
-4.826630 27.759964 671.036987 287.986976 -33.574007 53.072851 5.935019 0.050358 -1.023141 11.837881 -1.845104 -3.246900 11.837885 -1.845112 -3.246919 26.123252 7.720851 4.249958 -5.114117 6.876558 1.806121 0.000001 0.000000 -0.000000 0.000001 0.000000 -0.000000 0.000001 0.000000 -0.000000 -1.136380 2.894289 10.719888 -19.618014 -2.854096 -70.082891 -195.685015 -110.364936 -186.712510 13.025514 -25.197493 39.470823 1.972109 9.799327 -13.319000 -0.451051 -1.490352 -20.650059 0.000004 -0.000011 -0.000008 -0.000000 -0.000001 -0.000001 4.634743 -2.699752 -6.989250 -0.195258 0.333417 0.831182 0.000004 -0.000009 -0.000018 0.000001 -0.000002 -0.000000 -0.889969 -6.861134 -2.582174 0.062502 0.950454 -15.197147 0.000000 -0.000002 0.000002 -0.000002 0.000000 -0.000000 2.649356 14.970205 -30.128299 -0.515128 -2.578730 -30.784195 -0.000007 -0.000009 -0.000012 -0.000001 0.000001 -0.000001 4.209173 18.548707 -33.770023 -0.637368 -5.786552 -38.141139 0.000001 0.000013 0.000009 0.000000 -0.000001 -0.000000 5.542058 32.966915 -8.646073 -40.435734 19.806900 58.538601 28.704676 56.367434 -21.440763 35.963811 11.412330 -30.099455 2.256386 -5.349444 14.240534 -0.449260 1.458850 25.704637 -0.000001 0.000001 0.000002 -0.000005 -0.000000 -0.000001 -9.061043 -5.977435 17.771292 2.600452 -7.172008 -2.138487 -0.000001 0.000003 -0.000022 -0.000002 -0.000000 0.000000 4.226244 3.444788 8.350455 -0.119139 -0.472740 23.889278 -0.000001 -0.000002 0.000003 -0.000002 -0.000000 0.000000 -1.159614 -13.025972 12.663323 -0.747135 3.435050 32.546876 0.000001 -0.000002 0.000003 0.000001 0.000001 0.000000 -1.592758 -21.945628 17.036297 -0.674660 6.528454 20.701146 0.000006 0.000000 -0.000006 -0.000001 -0.000000 -0.000000 -115.166524 0.095443 16.102159 91.262775 -0.770410 -7.178683 -18.635621 -0.419490 1.860622 1.152897 -3.296581 2.860031 -0.000001 0.000002 -0.000001 -86.724736 -24.211486 -8.136658 123.779625 15.739604 -0.330299 40.087507 8.070569 25.820410 9.652614 -11.160755 14.856449 0.000001 0.000000 0.000001 
-11.446579 36.113495 683.550171 297.328844 -42.395968 46.207148 8.021849 0.387579 -1.361924 16.034786 -0.693935 -4.094352 16.034769 -0.693929 -4.094342 27.431894 5.934566 -3.086155 -3.196559 5.181606 7.447685 -0.000001 -0.000003 0.000001 -0.000001 -0.000003 0.000001 -0.000001 -0.000003 0.000001 0.722609 -5.190128 0.432597 -19.669671 1.237091 -58.359882 -197.368370 -123.401369 -187.290795 11.311082 -30.510175 39.124171 2.007190 9.951890 -11.774776 -0.391530 -1.332691 -19.099613 0.000004 -0.000006 -0.000004 -0.000000 0.000001 0.000001 3.781017 -4.062422 -7.327343 -0.332728 0.031087 0.784433 0.000005 -0.000009 -0.000017 -0.000001 0.000002 -0.000000 -0.884631 -6.706774 -1.031215 0.108573 1.131821 -13.651169 0.000002 -0.000002 0.000004 -0.000000 -0.000000 0.000000 2.706624 15.063922 -28.588535 -0.469865 -2.497908 -29.226847 -0.000005 -0.000007 -0.000006 -0.000001 0.000001 0.000001 4.257033 18.618507 -32.229436 -0.615950 -5.758947 -36.581257 -0.000001 0.000012 0.000008 -0.000001 -0.000001 0.000001 5.068181 32.339689 -7.296690 -38.963511 20.024329 63.432923 26.574989 54.835539 -16.871155 35.019572 15.781950 -30.711792 2.238662 -5.289622 15.026478 -0.480530 1.522604 26.491797 0.000001 -0.000003 0.000004 -0.000004 0.000002 0.000002 -8.547088 -6.542275 17.816419 2.866519 -7.774159 -2.199271 -0.000005 0.000002 -0.000020 0.000004 0.000000 -0.000000 4.216526 3.505429 9.138378 -0.151241 -0.401070 24.672006 0.000004 -0.000001 0.000005 -0.000000 0.000000 0.000000 -1.176868 -12.952501 13.445652 -0.784272 3.492723 33.335934 0.000000 -0.000004 0.000001 -0.000001 0.000000 -0.000003 -1.567281 -21.822564 17.826807 -0.696321 6.584958 21.491161 0.000003 0.000002 -0.000008 0.000002 0.000000 0.000002 -96.609324 2.915928 25.384984 91.731251 -2.194992 -9.236685 -26.378232 -1.556338 5.375445 2.222786 -3.314824 3.101602 -0.000000 0.000002 -0.000002 -60.663117 -10.674714 -0.808019 111.195145 6.359050 1.514269 29.786820 3.615211 17.044573 12.633395 -8.784300 13.471793 -0.000001 -0.000001 0.000000 
-12.790009 38.595261 696.680542 306.662708 -45.082069 40.619651 8.915795 0.477116 -1.621450 17.832560 -0.260513 -4.373559 17.832557 -0.260513 -4.373555 29.839884 4.976122 -6.096444 -4.186249 3.835625 9.307419 -0.000001 0.000000 0.000000 -0.000001 0.000000 0.000000 -0.000001 0.000000 0.000000 0.897352 -15.566797 0.125020 -19.076802 3.088713 -50.921871 -197.791364 -137.907093 -187.107145 2.862667 -35.309090 30.088387 2.026519 10.042526 -10.898047 -0.361572 -1.242084 -18.219226 0.000004 -0.000006 -0.000006 0.000002 0.000000 0.000004 3.122597 -5.095683 -7.600089 -0.329770 0.028601 0.785390 0.000003 -0.000006 -0.000022 -0.000002 0.000000 -0.000000 -0.883405 -6.618952 -0.150641 0.135289 1.234498 -12.773331 -0.000002 -0.000000 0.000000 -0.000000 0.000000 0.000001 2.737265 15.117920 -27.713723 -0.444354 -2.452386 -28.342401 -0.000008 -0.000006 -0.000010 -0.000002 0.000002 0.000000 4.283225 18.658588 -31.354222 -0.604097 -5.743012 -35.695446 -0.000002 0.000013 0.000008 -0.000001 0.000004 0.000002 5.034909 33.346889 -6.582514 -34.751463 16.555098 64.934540 23.376524 56.893024 -14.961181 31.581186 16.394986 -29.198082 2.221767 -5.233981 15.762885 -0.510616 1.581875 27.228824 0.000004 0.000000 0.000001 0.000003 -0.000003 0.000004 -8.066365 -7.071790 17.863673 3.136414 -8.384674 -2.258304 -0.000005 0.000004 -0.000020 0.000001 -0.000004 0.000001 4.207511 3.561553 9.876863 -0.183635 -0.331264 25.438963 0.000000 0.000000 -0.000000 0.000001 -0.000001 0.000002 -1.193795 -12.883924 14.178527 -0.819740 3.546229 34.074636 -0.000001 -0.000006 0.000005 0.000000 -0.000001 0.000005 -1.546301 -21.706329 18.566469 -0.717950 6.637225 22.230160 0.000000 0.000003 -0.000009 0.000001 0.000003 -0.000002 -87.606069 0.441886 27.737782 86.909929 0.562624 -8.962106 -23.493079 0.574168 -2.317872 3.153085 -2.220563 2.386591 0.000000 0.000001 0.000000 -51.756711 -7.517264 0.442843 96.129742 0.658091 4.066753 29.797315 3.131471 14.781559 7.212792 -7.672219 10.019470 -0.000001 0.000000 -0.000000 
